<?xml version="1.0" encoding="utf-8"?>
<!-- Generator: Adobe Illustrator 25.4.1, SVG Export Plug-In . SVG Version: 6.00 Build 0)  -->
<svg version="1.1" id="Calque_1" xmlns="http://www.w3.org/2000/svg" xmlns:xlink="http://www.w3.org/1999/xlink" x="0px" y="0px"
	 viewBox="0 0 512 512" style="enable-background:new 0 0 512 512;" xml:space="preserve">
<style type="text/css">
	.st0{fill:#FF79DA;}
	.st1{fill:#9356DC;}
	.st2{fill:#EEEEEE;}
	.st3{fill:#99E2D0;}
</style>
<path class="st0" d="M424,194.1C424,341.1,256,488,256,488S88,341.1,88,194.1c0-92.8,75.2-168,168-168S424,101.4,424,194.1
	L424,194.1z"/>
<path class="st1" d="M157,375.6c28.9,40.9,62,78.6,99,112.4c0,0,140.8-123.2,164.5-256.8C355.4,303.5,260,356,157,375.6L157,375.6z"
	/>
<circle class="st2" cx="256" cy="192" r="136"/>
<g>
	<path class="st3" d="M240,176c0,1.5,0,3.1-4.7,5.4l-11.3,5.7V112h-16v75.1l-11.3-5.7c-4.7-2.3-4.7-3.9-4.7-5.4v-64h-16v64
		c0.1,8.7,5.4,16.4,13.5,19.7l15.6,7.8c0.9,0.4,1.9,0.8,2.9,1V288h16v-83.5c1-0.3,2-0.6,2.9-1l15.6-7.8c8.1-3.3,13.4-11,13.5-19.7
		v-64h-16V176z"/>
	<path class="st3" d="M352,160c0-26.5-17.9-48-40-48s-40,21.5-40,48c0,23.2,13.8,42.6,32,47v81h16v-81
		C338.2,202.6,352,183.2,352,160z"/>
</g>
</svg>
